<svg width="120" height="14" viewBox="0 0 120 14" fill="none" xmlns="http://www.w3.org/2000/svg">
<path d="M0 0.912285C0.151144 1.5045 0.458973 2.04509 0.891155 2.47727C1.32334 2.90945 1.86393 3.21728 2.45614 3.36843H6.31579L6.49123 3.40351V13.0877H8.87719V3.4386L9.12281 3.33334H12.9825C13.573 3.17881 14.1118 2.86985 14.5435 2.4382C14.9751 2.00654 15.2841 1.46776 15.4386 0.877197L0 0.877197V0.912285ZM83.7193 0.912285H81.3333V13.1228H92.2807C92.7994 12.9267 93.2624 12.6068 93.6293 12.191C93.9962 11.7752 94.256 11.276 94.386 10.7368H83.7544V0.877197L83.7193 0.912285ZM65.3684 3.29825C66.6316 2.94737 67.6842 1.96492 67.9649 0.877197L54.5965 0.912285V8.14036H65.5088V10.6667H56.9474C56.2937 10.8367 55.6836 11.1436 55.1573 11.567C54.6311 11.9904 54.2008 12.5207 53.8947 13.1228H67.8947V5.75439H56.9474V3.29825H65.3684ZM106.14 13.1228H108.491V8.21053H117.123V13.1228H119.474V5.75439H106.14V13.1228ZM29.9298 3.33334H39.0526C39.653 3.19132 40.2028 2.88717 40.6421 2.45404C41.0814 2.02092 41.3933 1.47547 41.5439 0.877197L27.4737 0.877197C27.6213 1.47109 27.928 2.01354 28.3607 2.44627C28.7935 2.87901 29.3359 3.18568 29.9298 3.33334ZM29.9298 8.17544H39.0526C39.653 8.03343 40.2028 7.72927 40.6421 7.29615C41.0814 6.86303 41.3933 6.31758 41.5439 5.7193H27.4737C27.6213 6.3132 27.928 6.85565 28.3607 7.28838C28.7935 7.72111 29.3359 8.02778 29.9298 8.17544ZM29.9298 13.1228H39.0526C39.653 12.9808 40.2028 12.6766 40.6421 12.2435C41.0814 11.8104 41.3933 11.2649 41.5439 10.6667H27.4737C27.6213 11.2606 27.928 11.803 28.3607 12.2357C28.7935 12.6685 29.3359 12.9752 29.9298 13.1228ZM108.246 3.33334H117.368C117.962 3.18568 118.505 2.87901 118.938 2.44627C119.37 2.01354 119.677 1.47109 119.825 0.877197L105.789 0.877197C105.937 1.47109 106.244 2.01354 106.677 2.44627C107.109 2.87901 107.652 3.18568 108.246 3.33334Z" fill="white"/>
</svg>
